<svg xmlns="http://www.w3.org/2000/svg" viewBox="0 0 1200 630" width="1200" height="630">
  <defs>
    <linearGradient id="bg" x1="0" y1="0" x2="1" y2="1">
      <stop offset="0%" stop-color="#F5F0FF"/>
      <stop offset="50%" stop-color="#E9F3FF"/>
      <stop offset="100%" stop-color="#FFF3F8"/>
    </linearGradient>
    <linearGradient id="accent" x1="0" y1="0" x2="1" y2="1">
      <stop offset="0%" stop-color="#FF9EC4"/>
      <stop offset="45%" stop-color="#B8A4FF"/>
      <stop offset="100%" stop-color="#9CCEFF"/>
    </linearGradient>
    <filter id="blur"><feGaussianBlur stdDeviation="40"/></filter>
  </defs>
  <rect width="1200" height="630" fill="url(#bg)"/>
  <circle cx="200" cy="180" r="220" fill="#B8A4FF" opacity="0.55" filter="url(#blur)"/>
  <circle cx="1000" cy="220" r="240" fill="#9CCEFF" opacity="0.55" filter="url(#blur)"/>
  <circle cx="620" cy="520" r="260" fill="#FFC6A1" opacity="0.5" filter="url(#blur)"/>

  <g transform="translate(80 100)">
    <rect width="1040" height="440" rx="36" fill="white" opacity="0.55" stroke="white" stroke-width="2"/>
    <g transform="translate(60 60)" font-family="-apple-system, Inter, 'PingFang SC', 'Microsoft YaHei', sans-serif" fill="#0F172A">
      <text x="0" y="0" font-size="20" fill="#6B7280" font-weight="500">codex.ifq.ai · business guide</text>
      <text x="0" y="84" font-size="64" font-weight="800" letter-spacing="-1.5">把业务经验，</text>
      <text x="0" y="160" font-size="64" font-weight="800" letter-spacing="-1.5" fill="url(#accent)">变成可运行的桌面工具</text>
      <text x="0" y="230" font-size="22" fill="#475569">Describe the workflow · Copy the prompt · Let Codex build</text>
      <text x="0" y="266" font-size="22" fill="#475569">Windows &amp; macOS · business workflows · bilingual</text>

      <g transform="translate(0 310)">
        <rect width="170" height="44" rx="22" fill="url(#accent)"/>
        <text x="30" y="29" font-size="18" font-weight="700" fill="white">Start here →</text>
        <g transform="translate(196 0)">
          <rect width="220" height="44" rx="22" fill="white" opacity="0.8" stroke="white"/>
        <text x="24" y="29" font-size="18" font-weight="600" fill="#0F172A">Quick start</text>
        </g>
      </g>
    </g>
    <g transform="translate(760 70)">
      <g stroke="white" stroke-width="6" stroke-linecap="round" stroke-linejoin="round" fill="none">
        <path d="M60 60l-30 40 30 40"/>
        <path d="M190 60l30 40-30 40"/>
        <path d="M150 30l-30 120"/>
      </g>
    </g>
  </g>
</svg>
